<?xml version="1.0" encoding="UTF-8"?>
<svg width="406" height="152" viewBox="0 0 406 152" fill="none" xmlns="http://www.w3.org/2000/svg">
  <path d="M 281.00 143.50 L 131.00 143.50 L 124.50 117.00 L 117.50 99.00 L 106.50 79.00 L 91.50 59.00 L 79.00 46.50 L 59.00 31.50 L 32.00 18.50 L 9.00 13.50 L 7.50 12.00 L 7.50 8.00 L 121.00 7.50 L 115.50 29.00 L 114.50 45.00 L 118.50 69.00 L 127.50 89.00 L 140.50 106.00 L 157.00 119.50 L 176.00 128.50 L 195.00 132.50 L 196.50 131.00 L 196.50 8.00 L 214.00 7.50 L 214.50 131.00 L 218.00 132.50 L 236.00 128.50 L 256.00 118.50 L 273.50 103.00 L 285.50 86.00 L 294.50 62.00 L 296.50 46.00 L 295.50 28.00 L 290.50 11.00 L 291.00 7.50 L 397.00 7.50 L 397.00 14.50 L 381.00 18.50 L 359.00 28.50 L 335.00 45.50 L 317.50 63.00 L 305.50 79.00 L 296.50 95.00 L 286.50 120.00 L 282.50 142.00 L 281.00 143.50 Z" fill="#FFFFFF" fill-rule="evenodd"/>
</svg>
